<?xml version="1.0" encoding="utf-8"?>
<!-- Generator: Adobe Illustrator 19.1.0, SVG Export Plug-In . SVG Version: 6.00 Build 0)  -->
<svg version="1.1" id="Layer_1" xmlns="http://www.w3.org/2000/svg" xmlns:xlink="http://www.w3.org/1999/xlink" x="0px" y="0px"
	 viewBox="-41 164.9 512 512" style="enable-background:new -41 164.9 512 512;" xml:space="preserve">
<style type="text/css">
	.st0{fill:#FFFFFF;}
</style>
<path class="st0" d="M131.2,535.1c16.2,0,29.4-13.1,29.4-29.4v-61.4c1.3,1.4,2.7,2.7,4.4,3.7L303.4,528c2.7,1.6,5.8,2.4,8.9,2.4
	c3,0,6.1-0.8,8.9-2.4c5.5-3.2,8.9-9,8.9-15.3V352.8c0-6.3-3.4-12.2-8.9-15.3c-5.5-3.2-12.2-3.2-17.7,0L165,417.4
	c-1.7,1-3.2,2.2-4.4,3.7v-67.4c0-16.2-13.1-29.4-29.4-29.4c-16.2,0-29.4,13.1-29.4,29.4h0v152C101.8,522,115,535.1,131.2,535.1z"/>
</svg>
