<?xml version="1.0" encoding="utf-8"?>
<!-- Generator: Adobe Illustrator 19.1.0, SVG Export Plug-In . SVG Version: 6.00 Build 0)  -->
<svg version="1.1" id="Layer_1" xmlns="http://www.w3.org/2000/svg" xmlns:xlink="http://www.w3.org/1999/xlink" x="0px" y="0px"
	 viewBox="-41 164.9 512 512" style="enable-background:new -41 164.9 512 512;" xml:space="preserve">
<style type="text/css">
	.st0{fill:#FFFFFF;}
</style>
<path class="st0" d="M360.4,408.6l-122.1-70.5c-4.4-2.5-9.8-2.5-14.2,0c-4.4,2.5-7.1,7.3-7.1,12.3v57.9L95.4,338.1
	c-4.4-2.5-9.8-2.5-14.2,0c-4.4,2.5-7.1,7.3-7.1,12.3v141c0,5.1,2.7,9.8,7.1,12.3c2.2,1.3,4.7,1.9,7.1,1.9s4.9-0.6,7.1-1.9
	l121.6-70.2v57.9c0,5.1,2.7,9.8,7.1,12.3c2.2,1.3,4.7,1.9,7.1,1.9s4.9-0.6,7.1-1.9l122.1-70.5c4.4-2.5,7.1-7.2,7.1-12.3
	C367.5,415.8,364.8,411.1,360.4,408.6z"/>
</svg>
