<?xml version="1.0" encoding="utf-8"?>
<!-- Generator: Adobe Illustrator 19.1.0, SVG Export Plug-In . SVG Version: 6.00 Build 0)  -->
<svg version="1.1" id="Layer_1" xmlns="http://www.w3.org/2000/svg" xmlns:xlink="http://www.w3.org/1999/xlink" x="0px" y="0px"
	 viewBox="-41 164.9 512 512" style="enable-background:new -41 164.9 512 512;" xml:space="preserve">
<style type="text/css">
	.st0{fill:#FFFFFF;}
</style>
<path class="st0" d="M108.9,528c2.7,1.6,5.8,2.4,8.9,2.4c3.1,0,6.1-0.8,8.9-2.4L265,448.1c1.7-1,3.2-2.2,4.4-3.7v61.4
	c0,16.2,13.1,29.4,29.4,29.4s29.4-13.1,29.4-29.4h0v-152c0-16.2-13.1-29.4-29.4-29.4s-29.4,13.1-29.4,29.4v67.4
	c-1.3-1.4-2.7-2.7-4.4-3.7l-138.4-79.9c-5.5-3.2-12.2-3.2-17.7,0c-5.5,3.2-8.9,9-8.9,15.3v159.8C100.1,519,103.5,524.8,108.9,528z"
	/>
</svg>
