<?xml version="1.0" encoding="utf-8"?>
<!-- Generator: Adobe Illustrator 19.1.0, SVG Export Plug-In . SVG Version: 6.00 Build 0)  -->
<svg version="1.1" id="Layer_1" xmlns="http://www.w3.org/2000/svg" xmlns:xlink="http://www.w3.org/1999/xlink" x="0px" y="0px"
	 viewBox="-41 164.9 512 512" style="enable-background:new -41 164.9 512 512;" xml:space="preserve">
<style type="text/css">
	.st0{fill:#FFFFFF;}
</style>
<path class="st0" d="M356,350.4c0-5.1-2.7-9.8-7.1-12.3c-4.4-2.5-9.8-2.5-14.2,0L213,408.3v-57.9c0-5.1-2.7-9.8-7.1-12.3
	c-4.4-2.5-9.8-2.5-14.2,0L69.6,408.6c-4.4,2.5-7.1,7.2-7.1,12.3c0,5.1,2.7,9.8,7.1,12.3l122.1,70.5c2.2,1.3,4.7,1.9,7.1,1.9
	c2.5,0,4.9-0.6,7.1-1.9c4.4-2.5,7.1-7.2,7.1-12.3v-57.9l121.6,70.2c2.2,1.3,4.7,1.9,7.1,1.9c2.5,0,4.9-0.6,7.1-1.9
	c4.4-2.5,7.1-7.2,7.1-12.3h0V350.4z"/>
</svg>
